<?xml version="1.0" encoding="UTF-8" standalone="no"?>
<!-- Created with Inkscape (http://www.inkscape.org/) -->

<svg
   xmlns:dc="http://purl.org/dc/elements/1.1/"
   xmlns:cc="http://creativecommons.org/ns#"
   xmlns:rdf="http://www.w3.org/1999/02/22-rdf-syntax-ns#"
   xmlns:svg="http://www.w3.org/2000/svg"
   xmlns="http://www.w3.org/2000/svg"
   xmlns:sodipodi="http://sodipodi.sourceforge.net/DTD/sodipodi-0.dtd"
   xmlns:inkscape="http://www.inkscape.org/namespaces/inkscape"
   width="512"
   height="512"
   id="svg2"
   version="1.1"
   inkscape:version="0.48.5 r10040"
   sodipodi:docname="logo.svg"
   inkscape:export-filename="/home/donp/Documents/IceCondor/logo-512.png"
   inkscape:export-xdpi="90"
   inkscape:export-ydpi="90">
  <defs
     id="defs4" />
  <sodipodi:namedview
     id="base"
     pagecolor="#ffffff"
     bordercolor="#666666"
     borderopacity="1.0"
     inkscape:pageopacity="0.0"
     inkscape:pageshadow="2"
     inkscape:zoom="2.8284271"
     inkscape:cx="267.74739"
     inkscape:cy="26.396986"
     inkscape:document-units="px"
     inkscape:current-layer="layer1"
     showgrid="false"
     inkscape:window-width="801"
     inkscape:window-height="725"
     inkscape:window-x="415"
     inkscape:window-y="66"
     inkscape:window-maximized="0" />
  <metadata
     id="metadata7">
    <rdf:RDF>
      <cc:Work
         rdf:about="">
        <dc:format>image/svg+xml</dc:format>
        <dc:type
           rdf:resource="http://purl.org/dc/dcmitype/StillImage" />
        <dc:title />
      </cc:Work>
    </rdf:RDF>
  </metadata>
  <g
     inkscape:label="Layer 1"
     inkscape:groupmode="layer"
     id="layer1"
     transform="translate(0,-540.36218)">
    <path
       style="fill:#252b82;stroke:none"
       d="m 298.7236,954.62918 c -6.19923,-2.22699 -21.3805,-3.16142 -34.30722,-0.7494 -12.93401,2.4134 -7.02179,1.34914 -6.30604,15.12665 0.4298,8.2732 6.7477,15.38812 -0.53446,15.33194 -14.68171,-0.38213 -17.31235,-2.58711 -31.89938,-2.00757 -1.62163,-11.62662 -2.34973,-17.75023 -2.75837,-29.39982 -21.03124,-2.79287 -28.94971,-1.16529 -32.14419,1.20633 -3.59777,2.67124 -2.3572,10.57563 -2.18331,20.70389 0.0655,3.81276 -13.17649,1.69309 -12.88834,-1.84386 0.6481,-7.95547 -3.97281,-14.90491 -4.35693,-20.6244 -1.55953,-23.22169 -2.61043,11.76682 -10.72965,-21.46455 -4.85511,-19.87163 4.19266,-29.01411 1.76731,-70.13758 -1.50218,-25.47025 -7.87452,-61.42437 -7.87058,-80.80089 0.005,-24.5702 -1.39966,-40.82231 -3.24718,-60.33354 -1.43288,-15.13256 6.00043,-40.24471 5.81086,-42.77311 -0.33282,-4.43956 8.50415,-0.20455 39.78091,-17.04781 78.28482,-21.17407 20.81092,-15.75092 27.65394,13.41463 21.66902,11.6227 18.76567,-0.9797 27.5512,9.20074 14.49563,2.42589 9.39701,2.28328 28.04733,0.79155 17.03243,-16.70394 12.92831,-6.39111 41.11357,0.44705 4.22618,6.88958 12.04906,15.91608 12.01051,27.57242 -1.90991,11.37483 9.00893,19.61079 4.43522,39.89746 l -14.15631,33.83853 -0.55911,63.38264 2.68563,68.86611 -2.57462,26.35372 c -1.90152,19.46388 -12.48611,-8.56636 -7.39839,16.15073 2.16386,10.51241 4.98856,13.65312 -4.5898,14.87283 -11.4096,1.77077 -7.03364,-9.01832 -12.3526,-19.97486 z"
       id="path3821"
       inkscape:connector-curvature="0"
       sodipodi:nodetypes="csscccsssssssssccccccscccssccc" />
    <path
       style="fill:#3139ae;stroke:none"
       d="m 156.83798,943.3075 c -10.3084,-12.29531 -12.71203,-3.89001 -26.2399,-41.64409 -13.20208,-36.84483 -16.9302,-43.45141 -18.28402,-58.77152 -8.22574,-45.94397 -9.26024,-57.74459 -4.96831,-100.13854 l 1.7048,-28.42811 13.59907,-16.70045 c 9.24067,-11.32271 33.14653,-29.59515 36.77489,-18.8194 6.57107,20.04763 3.99661,46.59662 3.99532,71.78603 12.17541,68.0878 4.16775,64.39312 7.7986,99.96727 1.61355,14.51329 6.73849,86.78651 9.67467,92.00803 -4.6659,13.02783 -16.85127,9.20941 -24.05512,0.74078 z"
       id="path3817"
       inkscape:connector-curvature="0"
       sodipodi:nodetypes="csccccccccc" />
    <path
       style="fill:#3139ae;stroke:none"
       d="m 317.01577,917.62203 -2.06534,-17.65357 -0.16288,-42.85724 c -0.0403,-10.59482 6.57469,-23.89551 4.69646,-54.82097 l 2.38474,-34.3117 1.58236,-23.33237 c 0.99557,-14.67999 -3.54222,-22.81828 -0.38397,-35.05052 -13.6528,-29.90497 7.07319,-31.03037 24.75892,-14.59218 16.67628,16.09635 22.56452,22.15458 23.97525,41.88114 1.37055,19.32242 0.2918,45.72175 -3.91675,95.85377 -0.83872,9.99084 -5.16015,24.89887 -3.68244,36.85331 1.30357,24.23288 -0.3772,26.78358 -4.45851,49.87836 -40.76045,49.8931 -38.76843,20.18811 -42.72784,-1.84803 z"
       id="path3819"
       inkscape:connector-curvature="0"
       sodipodi:nodetypes="ccsscscccsccc" />
    <path
       style="fill:#980101;stroke:none"
       d="m 245.94755,681.22145 c -18.57755,-6.38739 -12.34671,5.36054 -28.83237,-10.60411 l -3.83809,-29.45511 c -3.08515,-23.67677 -3.37244,-6.54793 -2.19085,-24.93746 0.2029,-3.1578 14.08736,4.78261 21.98611,6.44253 19.56615,4.11185 6.77718,2.65667 26.19285,9.78848 17.3093,6.35808 13.40066,5.92982 23.73405,8.60633 -1.4776,23.69342 17.48951,34.09476 7.64017,45.19719 -23.3677,7.70604 -23.38202,2.17066 -44.69187,-5.03785 z"
       id="path3823"
       inkscape:connector-curvature="0"
       sodipodi:nodetypes="ccssssccc" />
    <path
       style="fill:#ffff33;stroke:#000000;stroke-width:1.35381627;stroke-opacity:1"
       d=""
       id="path3829"
       inkscape:connector-curvature="0" />
    <path
       style="fill:#888888;stroke:none"
       d="m 226.54062,1029.839 -1.31648,-9.0402 -12.06066,-2.3156 c -7.4332,3.0451 -3.68567,1.2794 -6.40905,9.2303 0.75523,5.4498 0.005,12.3373 -0.37066,12.7132 -6.06704,0.4146 -8.94104,0.9336 -15.3273,0.1923 l -0.70711,-10.6595 c -0.25934,-3.9095 2.00883,-8.2425 -0.86093,-10.2232 -5.08386,-4.9455 -7.34385,-2.1891 -11.88878,0.7364 l -2.67874,5.8102 -0.96648,15.6171 c -15.65285,2.812 -7.77093,-15.2782 -5.86008,-40.0693 8.49904,-2.39016 16.12212,-2.06235 19.25698,-10.84239 4.12962,-14.61608 1.22344,-24.86431 4.91685,-39.39785 0.28365,-0.28364 10.4692,-2.21124 16.90145,-0.59797 9.57945,2.40257 8.12164,2.44819 8.62977,4.8036 0.34118,1.58159 -1.07138,-1.29998 -0.17909,12.16694 l -0.96202,27.44163 19.28042,12.96524 c 1.59852,28.1319 8.7622,32.8886 -8.31619,32.8682 -1.46245,0.5895 -0.29445,-3.0017 -1.0819,-11.3991 z"
       id="path3831"
       inkscape:connector-curvature="0"
       sodipodi:nodetypes="ccccccscccccccssscccc" />
    <path
       style="fill:#888888;stroke:none"
       d="m 309.15868,1036.9592 -0.8954,-11.8204 -8.65361,-2.1074 c -10.34383,-2.519 -7.63253,-1.2218 -9.6548,11.2311 1.24245,15.9083 -20.11096,9.9025 -15.83296,1.6129 1.18755,-5.7425 0.6968,-13.6147 0.0677,-14.2149 -5.90163,-4.0466 -8.09624,-1.4489 -14.89574,0.8565 l -0.74153,4.1273 c -0.36345,2.0229 1.02576,14.5141 0.72881,15.4449 -0.33996,1.0656 -3.78287,0.8988 -8.18334,0.8988 -5.83544,0.7625 -7.11017,-1.7744 -7.06703,-7.9199 0.41276,-7.1237 0.85632,-8.4129 0.18703,-13.2064 l 0.81001,-8.7592 9.99385,-9.6291 c 3.48229,-3.3551 13.81016,0.9941 14.85354,-2.3535 2.58106,-8.28135 0.94651,-13.51196 -1.27766,-31.55952 -1.59422,-12.93589 -4.43889,-11.9271 -2.47637,-15.62564 3.13062,-2.02103 2.51939,-1.71868 21.1166,-0.71146 13.44903,0.72841 12.21405,-2.41368 12.38556,26.72171 l 0.1225,20.81581 21.5208,13.7151 -0.29539,13.7963 -1.60451,11.5875 c -1.34965,5.7049 -11.87031,5.2266 -10.20806,-2.9005 z"
       id="path3833"
       inkscape:connector-curvature="0"
       sodipodi:nodetypes="ccsccccssccscssscssccccc" />
    <g
       id="g2992"
       transform="matrix(1.5470225,-0.09202121,0.09486071,1.5007148,-198.2239,-327.01608)">
      <path
         sodipodi:nodetypes="cscccccccccsccc"
         inkscape:connector-curvature="0"
         id="path3825"
         d="m 274.83936,668.07781 c -31.86483,-14.59115 -28.86919,-6.00474 -43.56093,-18.10871 l -15.6117,-12.86189 -0.73882,-11.73256 -0.73883,-11.73256 5.28213,-12.34911 12.35318,-6.51549 17.46764,0.17678 15.34631,5 9.99935,11.03262 10.55404,14.6234 11.27819,15.02458 c 7.17994,9.56497 7.81384,12.92711 13.44418,23.11229 0.95474,4.54286 -8.0875,-1.26839 -10.68185,2.58109 -8.26446,13.40242 -11.48222,8.03783 -24.39289,1.74956 z"
         style="fill:#d40000;stroke:none" />
      <path
         sodipodi:nodetypes="cccccccccc"
         inkscape:connector-curvature="0"
         id="path3001"
         d="m 307.3934,659.69078 c 6.63368,3.93576 3.59426,5.1446 8.07143,9.96429 l -2.32143,6.5 c -2.13888,2.50568 -1.48483,3.94632 -4.46429,5.10715 -2.95503,-1.55045 -3.54802,-1.74761 -3.03571,-4.82144 l -2.67857,-1.07142 -11.64286,-1.03572 8.25,-7.71428 1.78572,-4.10715 z"
         style="fill:#cccccf;stroke:#000000;stroke-width:1px;stroke-linecap:butt;stroke-linejoin:miter;stroke-opacity:1" />
    </g>
    <path
       style="fill:#ffff00;stroke:#000000;stroke-width:1.52655447px;stroke-linecap:butt;stroke-linejoin:miter;stroke-opacity:1"
       d="m 252.35801,558.71662 10.41168,1.06316 5.4798,4.78419 c 1.1645,6.36742 -6.48407,12.61368 -12.60359,9.56843 l -6.30178,-7.7079 z"
       id="path3005"
       inkscape:connector-curvature="0"
       sodipodi:nodetypes="cccccc" />
  </g>
</svg>
