<?xml version="1.0" encoding="UTF-8" standalone="no"?>
<!-- Created with Inkscape (http://www.inkscape.org/) -->

<svg
   xmlns:dc="http://purl.org/dc/elements/1.1/"
   xmlns:cc="http://creativecommons.org/ns#"
   xmlns:rdf="http://www.w3.org/1999/02/22-rdf-syntax-ns#"
   xmlns:svg="http://www.w3.org/2000/svg"
   xmlns="http://www.w3.org/2000/svg"
   xmlns:sodipodi="http://sodipodi.sourceforge.net/DTD/sodipodi-0.dtd"
   xmlns:inkscape="http://www.inkscape.org/namespaces/inkscape"
   width="512"
   height="512"
   id="svg2"
   version="1.1"
   inkscape:version="0.48.4 r9939"
   sodipodi:docname="logo.svg"
   inkscape:export-filename="/home/donp/Documents/IceCondor/logo-512.png"
   inkscape:export-xdpi="90"
   inkscape:export-ydpi="90">
  <defs
     id="defs4" />
  <sodipodi:namedview
     id="base"
     pagecolor="#ffffff"
     bordercolor="#666666"
     borderopacity="1.0"
     inkscape:pageopacity="0.0"
     inkscape:pageshadow="2"
     inkscape:zoom="1"
     inkscape:cx="248.83142"
     inkscape:cy="265.57197"
     inkscape:document-units="px"
     inkscape:current-layer="layer1"
     showgrid="false"
     inkscape:window-width="1195"
     inkscape:window-height="683"
     inkscape:window-x="20"
     inkscape:window-y="170"
     inkscape:window-maximized="0" />
  <metadata
     id="metadata7">
    <rdf:RDF>
      <cc:Work
         rdf:about="">
        <dc:format>image/svg+xml</dc:format>
        <dc:type
           rdf:resource="http://purl.org/dc/dcmitype/StillImage" />
        <dc:title></dc:title>
      </cc:Work>
    </rdf:RDF>
  </metadata>
  <g
     inkscape:label="Layer 1"
     inkscape:groupmode="layer"
     id="layer1"
     transform="translate(0,-540.36218)">
    <path
       style="fill:#252b82;stroke:none"
       d="m 287.45932,913.33693 c -4.7764,-1.82757 -16.47328,-2.59442 -26.43309,-0.61499 -9.96541,1.98055 -5.41015,1.10717 -4.85868,12.41368 0.33115,6.7894 5.19898,12.62825 -0.41179,12.58215 -11.31199,-0.3136 -13.33885,-2.12312 -24.57789,-1.64751 -1.24944,-9.54138 -1.81042,-14.56673 -2.12527,-24.12697 -16.20418,-2.29195 -22.30522,-0.95629 -24.76651,0.99 -2.77201,2.19215 -1.81617,8.67887 -1.6822,16.99062 0.0504,3.12895 -10.15224,1.38944 -9.93023,-1.51317 0.49936,-6.52863 -3.06098,-12.2317 -3.35693,-16.92538 -1.20159,-19.05687 -2.01129,9.65644 -8.267,-17.61489 -3.74077,-16.30764 -3.76963,-25.81042 -5.63832,-59.55839 -1.1574,-20.90214 -9.06717,-44.90789 -9.06414,-60.80921 0.004,-20.16353 -5.57841,-35.00081 -7.00188,-51.0127 -1.10401,-12.41853 -8.87679,-33.02681 -9.02284,-35.10174 -0.25644,-3.64332 1.05229,-6.66786 25.15045,-20.49029 14.8599,-8.52348 34.69643,-18.72639 35.15305,-18.44419 1.33541,9.03796 -1.83135,13.30004 0.15381,21.95291 2.69558,12.53817 4.95856,10.19601 15.72768,20.05059 l 15.15228,8.8456 24.4724,0.30399 c 6.62471,-2.23711 4.61125,-7.62678 4.90848,-17.8313 2.73845,-24.15043 42.98448,-0.22757 47.88288,7.84236 3.25619,5.65392 2.65474,15.91733 2.62504,25.4831 -1.47155,9.33475 -0.55879,14.59358 -4.08274,31.24184 l -6.40718,30.26958 -4.93078,49.51494 2.06923,56.51494 -1.9837,21.62719 c -1.46509,15.97302 -9.62032,-7.02999 -5.70032,13.25408 1.66721,8.62701 3.84359,11.20443 -3.53636,12.20539 -8.79089,1.45318 -5.4193,-7.40089 -9.51745,-16.39236 z"
       id="path3821"
       inkscape:connector-curvature="0"
       sodipodi:nodetypes="csscccssssssssssccccccccscccssccc" />
    <path
       style="fill:#3139ae;stroke:none"
       d="m 156.90509,915.5076 c -2.87183,-0.30174 -4.43692,-1.26705 -6.68525,-4.12335 -7.94244,-10.09015 -10.37517,-15.53079 -20.79815,-46.51366 -10.17194,-30.23669 -10.5444,-31.65838 -11.58749,-44.23083 -1.02737,-12.38285 -2.44901,-36.81195 -3.60705,-61.98239 l -0.53446,-11.61675 1.81352,-19.07952 6.81352,-13.32951 10.47783,-13.70522 c 6.40029,-8.37171 16.89666,-16.8717 18.16266,-16.36529 8.26416,3.30571 11.3039,2.47648 12.67171,6.92115 5.06289,16.45208 0.57931,32.2395 0.57832,52.91118 9.38093,55.87624 3.21118,52.84419 6.00869,82.03811 1.24321,11.91032 3.19187,76.22132 5.45415,80.50635 -0.4998,9.11677 -8.58699,8.41758 -18.768,8.56973 z"
       id="path3817"
       inkscape:connector-curvature="0"
       sodipodi:nodetypes="csssscccssscccc" />
    <path
       style="fill:#3139ae;stroke:none"
       d="m 316.85582,917.89988 c 0,-0.63391 -0.0336,-9.3582 0.19728,-20.93285 l -5.59131,-23.4874 -3.1255,-36.17077 c -0.74852,-8.66243 4.89157,-18.67046 2.61855,-43.98882 l -2.66261,-29.65789 5.21918,-20.6477 c 1.84795,-7.31073 1.77078,-15.72581 4.20416,-25.7642 2.83982,-11.71505 1.04868,-25.94062 4.45378,-25.94062 0.40509,0 15.32562,8.38828 20.89109,14.57254 6.99311,7.77064 10.27423,12.21736 10.62148,14.39467 0.27635,1.73281 0.98845,10.44845 1.58243,19.3681 1.05597,15.85693 0.22483,37.52152 -3.01779,78.66235 -0.64622,8.19898 -0.47579,14.43326 0.66276,24.24366 1.80732,15.57279 1.81879,36.60773 0.0254,46.54147 -0.98638,5.46359 -2.60052,9.28761 -7.10035,16.82131 l -5.82376,9.75024 -8.79947,1.16772 c -4.83971,0.64224 -10.04953,1.40464 -11.57739,1.69423 -1.71498,0.32506 -2.77792,0.0855 -2.77792,-0.62604 z"
       id="path3819"
       inkscape:connector-curvature="0"
       sodipodi:nodetypes="cscsscsssssssssscsscc" />
    <path
       style="fill:#980101;stroke:none"
       d="m 241.50826,694.99891 c -10.02412,-3.49551 -11.3723,-4.29833 -19.14274,-11.39921 l -8.35915,-7.63886 2.76634,-17.72663 c 2.44741,-15.68291 2.98099,-29.73371 3.24333,-30.96459 0.43865,-2.05811 1.61876,-1.43251 14.68524,7.78493 7.81454,5.51258 14.96927,10.24223 15.89941,10.51031 0.93014,0.26809 11.14598,5.44392 17.81299,7.22407 -0.95333,15.7585 3.36486,38.0367 -2.98985,45.42092 l -13.13198,0.5494 z"
       id="path3823"
       inkscape:connector-curvature="0"
       sodipodi:nodetypes="cscsssscccc" />
    <path
       style="fill:#d40000;stroke:none"
       d="m 274.83936,656.57781 c -31.86483,-14.59115 -27.05058,-10.312 -43.06093,-20.60871 l -16.1117,-10.36189 -0.73882,-11.73256 -0.73883,-11.73256 5.28213,-12.34911 12.35318,-6.51549 17.46764,0.17678 15.34631,5 9.99935,11.03262 14.49934,13.53262 11.57553,10.45851 c 8.92899,8.06734 13.47069,11.51289 19.10103,21.69807 0.95474,4.54286 -5.96617,2.97425 -8.56052,6.82373 -1.26272,3.90274 -0.50954,4.90701 -2.54151,9.22413 -1.61376,3.72602 -3.80038,2.96595 -11.68399,-0.31244 -7.09719,-2.95135 -14.76859,-0.9362 -22.18821,-4.3337 z"
       id="path3825"
       inkscape:connector-curvature="0"
       sodipodi:nodetypes="sscccccccccscccss" />
    <path
       style="fill:#ffff33;stroke:#000000;stroke-width:1.01015258;stroke-opacity:1"
       d=""
       id="path3829"
       inkscape:connector-curvature="0"
       transform="translate(0,540.36218)" />
    <path
       style="fill:#888888;stroke:none"
       d="m 232.13736,971.66815 -0.45467,-7.2729 -5.56963,-1.2002 c -7.65674,0.16169 -6.70714,0.95469 -8.73919,6.8872 0.56351,4.0664 0.79518,7.6227 0.51484,7.9031 -0.28035,0.2803 -3.26503,0.1899 -6.63262,-0.2009 l -6.1229,-0.7107 0,-5.3156 c 0,-2.9236 1.49889,-8.52445 -0.64238,-10.0024 -3.79334,-3.6901 -6.00724,-1.36959 -9.39845,0.8134 l -1.47114,6.4456 -0.72114,7.6957 c -11.6794,2.0982 -5.79829,-7.44271 -4.37251,-25.9407 6.34158,-1.78346 12.02955,-1.53886 14.36863,-8.09009 3.08133,-10.90582 0.91288,-18.55256 3.66872,-29.39678 0.21164,-0.21164 7.81161,-1.64993 12.61105,-0.44619 7.14773,1.7927 6.05998,1.82673 6.43912,3.58423 0.25457,1.1801 -0.79941,-0.96999 -0.13363,9.07838 l -0.71781,20.47563 14.38612,9.67412 c 1.19273,20.9906 6.80174,22.6932 -5.94134,22.6779 -1.09121,0.4399 -0.48351,-0.393 -1.07107,-6.6588 z"
       id="path3831"
       inkscape:connector-curvature="0"
       sodipodi:nodetypes="cccccccscccccccssscccc" />
    <path
       style="fill:#888888;stroke:none"
       d="m 294.52914,975.61671 -0.29503,-7.8287 -7.57614,-1.1993 c -7.84593,-1.24201 -5.69502,-0.91161 -7.20394,8.3801 l -1.31236,7.33135 -4.99376,0.99996 c -5.52491,1.1064 -7.77473,-0.64236 -5.50767,-11.60481 0.88609,-4.2847 0.51991,-5.68173 0.0505,-6.12953 -4.40351,-3.01939 -6.04103,-1.08108 -11.11448,0.63914 l -0.5533,3.07954 c -0.27119,1.50939 0.76538,10.82973 0.54381,11.52423 -0.25366,0.7951 -2.8226,0.67063 -6.10602,0.67063 -4.35412,0.56894 -5.30527,-1.32398 -5.27308,-5.90942 0.30798,-5.31532 0.63895,-6.27739 0.13956,-9.854 l 0.60439,-6.53567 7.45693,-7.18474 c 2.59831,-2.50347 10.30448,0.74171 11.08299,-1.75612 1.92586,-6.17915 0.70624,-10.08198 -0.95333,-23.5482 -1.18953,-9.65214 -3.31208,-8.89943 -1.84775,-11.6591 2.33592,-1.508 1.87985,-1.28241 15.7562,-0.53086 10.03502,0.5435 9.11354,-1.80097 9.24151,19.93845 l 0.0914,15.53173 16.05778,10.23352 -0.2204,10.2942 -0.6696,6.5356 -0.41959,5.03575 c -3.22022,-0.24655 -3.2077,-0.17685 -6.43362,-0.12505 z"
       id="path3833"
       inkscape:connector-curvature="0"
       sodipodi:nodetypes="ccsscssccssccscssscssccccccc" />
    <path
       style="fill:#cccccf;stroke:#000000;stroke-width:1px;stroke-linecap:butt;stroke-linejoin:miter;stroke-opacity:1"
       d="m 319.5,646.89789 6.42857,6.96429 -0.35714,5 -2.32143,8.75 -4.46428,4.28572 -5.00001,1.07143 1.42857,-4.10715 0.53572,-3.21429 -2.67857,-1.07142 -7.14286,-0.53572 3.75,-8.21428 1.78572,-4.10715 z"
       id="path3001"
       inkscape:connector-curvature="0"
       sodipodi:nodetypes="ccccccccccccc" />
    <path
       style="fill:#ffff00;stroke:#000000;stroke-width:1px;stroke-linecap:butt;stroke-linejoin:miter;stroke-opacity:1"
       d="m 262.04372,607.22805 6.71752,0.70711 3.53553,3.18197 c 0.75132,4.23497 -4.18347,8.38935 -8.13173,6.36397 l -4.06586,-5.12653 z"
       id="path3005"
       inkscape:connector-curvature="0"
       sodipodi:nodetypes="cccccc" />
  </g>
</svg>
